<?xml version="1.0" encoding="UTF-8"?>
<!DOCTYPE svg PUBLIC "-//W3C//DTD SVG 1.1//EN" "http://www.w3.org/Graphics/SVG/1.1/DTD/svg11.dtd">
<svg version="1.2" width="552mm" height="203mm" viewBox="0 0 55200 20300" preserveAspectRatio="xMidYMid" fill-rule="evenodd" stroke-width="28.222" stroke-linejoin="round" xmlns="http://www.w3.org/2000/svg" xmlns:ooo="http://xml.openoffice.org/svg/export" xmlns:xlink="http://www.w3.org/1999/xlink" xmlns:presentation="http://sun.com/xmlns/staroffice/presentation" xmlns:smil="http://www.w3.org/2001/SMIL20/" xmlns:anim="urn:oasis:names:tc:opendocument:xmlns:animation:1.0" xml:space="preserve">
 <defs class="ClipPathGroup">
  <clipPath id="presentation_clip_path" clipPathUnits="userSpaceOnUse">
   <rect x="0" y="0" width="55200" height="20300"/>
  </clipPath>
  <clipPath id="presentation_clip_path_shrink" clipPathUnits="userSpaceOnUse">
   <rect x="55" y="20" width="55090" height="20260"/>
  </clipPath>
 </defs>
 <defs class="TextShapeIndex">
  <g ooo:slide="id1" ooo:id-list="id3 id4 id5 id6 id7 id8 id9 id10 id11 id12 id13 id14 id15 id16 id17 id18 id19 id20 id21 id22 id23 id24 id25 id26 id27 id28 id29"/>
 </defs>
 <defs class="EmbeddedBulletChars">
  <g id="bullet-char-template-57356" transform="scale(0.00048828125,-0.00048828125)">
   <path d="M 580,1141 L 1163,571 580,0 -4,571 580,1141 Z"/>
  </g>
  <g id="bullet-char-template-57354" transform="scale(0.00048828125,-0.00048828125)">
   <path d="M 8,1128 L 1137,1128 1137,0 8,0 8,1128 Z"/>
  </g>
  <g id="bullet-char-template-10146" transform="scale(0.00048828125,-0.00048828125)">
   <path d="M 174,0 L 602,739 174,1481 1456,739 174,0 Z M 1358,739 L 309,1346 659,739 1358,739 Z"/>
  </g>
  <g id="bullet-char-template-10132" transform="scale(0.00048828125,-0.00048828125)">
   <path d="M 2015,739 L 1276,0 717,0 1260,543 174,543 174,936 1260,936 717,1481 1274,1481 2015,739 Z"/>
  </g>
  <g id="bullet-char-template-10007" transform="scale(0.00048828125,-0.00048828125)">
   <path d="M 0,-2 C -7,14 -16,27 -25,37 L 356,567 C 262,823 215,952 215,954 215,979 228,992 255,992 264,992 276,990 289,987 310,991 331,999 354,1012 L 381,999 492,748 772,1049 836,1024 860,1049 C 881,1039 901,1025 922,1006 886,937 835,863 770,784 769,783 710,716 594,584 L 774,223 C 774,196 753,168 711,139 L 727,119 C 717,90 699,76 672,76 641,76 570,178 457,381 L 164,-76 C 142,-110 111,-127 72,-127 30,-127 9,-110 8,-76 1,-67 -2,-52 -2,-32 -2,-23 -1,-13 0,-2 Z"/>
  </g>
  <g id="bullet-char-template-10004" transform="scale(0.00048828125,-0.00048828125)">
   <path d="M 285,-33 C 182,-33 111,30 74,156 52,228 41,333 41,471 41,549 55,616 82,672 116,743 169,778 240,778 293,778 328,747 346,684 L 369,508 C 377,444 397,411 428,410 L 1163,1116 C 1174,1127 1196,1133 1229,1133 1271,1133 1292,1118 1292,1087 L 1292,965 C 1292,929 1282,901 1262,881 L 442,47 C 390,-6 338,-33 285,-33 Z"/>
  </g>
  <g id="bullet-char-template-9679" transform="scale(0.00048828125,-0.00048828125)">
   <path d="M 813,0 C 632,0 489,54 383,161 276,268 223,411 223,592 223,773 276,916 383,1023 489,1130 632,1184 813,1184 992,1184 1136,1130 1245,1023 1353,916 1407,772 1407,592 1407,412 1353,268 1245,161 1136,54 992,0 813,0 Z"/>
  </g>
  <g id="bullet-char-template-8226" transform="scale(0.00048828125,-0.00048828125)">
   <path d="M 346,457 C 273,457 209,483 155,535 101,586 74,649 74,723 74,796 101,859 155,911 209,963 273,989 346,989 419,989 480,963 531,910 582,859 608,796 608,723 608,648 583,586 532,535 482,483 420,457 346,457 Z"/>
  </g>
  <g id="bullet-char-template-8211" transform="scale(0.00048828125,-0.00048828125)">
   <path d="M -4,459 L 1135,459 1135,606 -4,606 -4,459 Z"/>
  </g>
  <g id="bullet-char-template-61548" transform="scale(0.00048828125,-0.00048828125)">
   <path d="M 173,740 C 173,903 231,1043 346,1159 462,1274 601,1332 765,1332 928,1332 1067,1274 1183,1159 1299,1043 1357,903 1357,740 1357,577 1299,437 1183,322 1067,206 928,148 765,148 601,148 462,206 346,322 231,437 173,577 173,740 Z"/>
  </g>
 </defs>
 <g>
  <g id="id2" class="Master_Slide">
   <g id="bg-id2" class="Background"/>
   <g id="bo-id2" class="BackgroundObjects"/>
  </g>
 </g>
 <g class="SlideGroup">
  <g>
   <g id="container-id1">
    <g id="id1" class="Slide" clip-path="url(#presentation_clip_path)">
     <g class="Page">
      <g class="Group">
       <g class="com.sun.star.drawing.PolyPolygonShape">
        <g id="id3">
         <rect class="BoundingBox" stroke="none" fill="none" x="12024" y="6000" width="3978" height="3751"/>
        </g>
       </g>
       <g class="com.sun.star.drawing.PolyPolygonShape">
        <g id="id4">
         <rect class="BoundingBox" stroke="none" fill="none" x="12024" y="6000" width="3978" height="3751"/>
        </g>
       </g>
      </g>
      <g class="Group">
       <g class="com.sun.star.drawing.PolyPolygonShape">
        <g id="id5">
         <rect class="BoundingBox" stroke="none" fill="none" x="12024" y="6000" width="3978" height="2631"/>
         <g>
          <defs>
           <linearGradient id="gradient1" x1="14012" y1="6000" x2="14012" y2="8630" gradientUnits="userSpaceOnUse">
            <stop offset="0" style="stop-color:rgb(141,177,226)"/>
            <stop offset="1" style="stop-color:rgb(172,199,234)"/>
           </linearGradient>
          </defs>
          <path style="fill:url(#gradient1)" d="M 12024,6885 L 14672,8630 16000,7765 13348,6000 12024,6885 Z"/>
         </g>
        </g>
       </g>
       <g class="com.sun.star.drawing.PolyPolygonShape">
        <g id="id6">
         <rect class="BoundingBox" stroke="none" fill="none" x="12011" y="5987" width="4003" height="2657"/>
         <path fill="none" stroke="rgb(255,255,255)" stroke-width="25" stroke-linejoin="round" stroke-linecap="round" d="M 12024,6885 L 14672,8630 16000,7765 13348,6000 12024,6885 Z"/>
        </g>
       </g>
      </g>
      <g class="Group">
       <g class="com.sun.star.drawing.PolyPolygonShape">
        <g id="id7">
         <rect class="BoundingBox" stroke="none" fill="none" x="14672" y="7760" width="1329" height="1992"/>
         <g>
          <defs>
           <linearGradient id="gradient2" x1="16165" y1="9584" x2="14507" y2="7926" gradientUnits="userSpaceOnUse">
            <stop offset="0" style="stop-color:rgb(141,177,226)"/>
            <stop offset="1" style="stop-color:rgb(172,199,234)"/>
           </linearGradient>
          </defs>
          <path style="fill:url(#gradient2)" d="M 14672,9750 L 15937,8926 15937,8773 16000,8732 16000,7760 14672,8619 14672,9750 Z"/>
         </g>
        </g>
       </g>
       <g class="com.sun.star.drawing.PolyPolygonShape">
        <g id="id8">
         <rect class="BoundingBox" stroke="none" fill="none" x="14659" y="7747" width="1355" height="2017"/>
         <path fill="none" stroke="rgb(255,255,255)" stroke-width="25" stroke-linejoin="round" stroke-linecap="round" d="M 14672,9750 L 15937,8926 15937,8773 16000,8732 16000,7760 14672,8619 14672,9750 Z"/>
        </g>
       </g>
      </g>
      <g class="Group">
       <g class="com.sun.star.drawing.PolyPolygonShape">
        <g id="id9">
         <rect class="BoundingBox" stroke="none" fill="none" x="12024" y="6880" width="2653" height="2871"/>
         <g>
          <defs>
           <linearGradient id="gradient3" x1="11969" y1="9696" x2="14731" y2="6934" gradientUnits="userSpaceOnUse">
            <stop offset="0" style="stop-color:rgb(141,177,226)"/>
            <stop offset="1" style="stop-color:rgb(172,199,234)"/>
           </linearGradient>
          </defs>
          <path style="fill:url(#gradient3)" d="M 12024,7852 L 12087,7908 12087,8057 14676,9750 14676,8625 12024,6880 12024,7852 Z"/>
         </g>
        </g>
       </g>
       <g class="com.sun.star.drawing.PolyPolygonShape">
        <g id="id10">
         <rect class="BoundingBox" stroke="none" fill="none" x="12011" y="6867" width="2679" height="2897"/>
         <path fill="none" stroke="rgb(0,0,0)" stroke-width="25" stroke-linejoin="round" stroke-linecap="round" d="M 12024,7852 L 12087,7908 12087,8057 14676,9750 14676,8625 12024,6880 12024,7852 Z"/>
        </g>
       </g>
      </g>
      <g class="Group">
       <g class="com.sun.star.drawing.PolyPolygonShape">
        <g id="id11">
         <rect class="BoundingBox" stroke="none" fill="none" x="14401" y="8599" width="141" height="236"/>
         <g>
          <defs>
           <linearGradient id="gradient4" x1="14564" y1="8809" x2="14377" y2="8622" gradientUnits="userSpaceOnUse">
            <stop offset="0" style="stop-color:rgb(0,255,0)"/>
            <stop offset="1" style="stop-color:rgb(192,192,192)"/>
           </linearGradient>
          </defs>
          <path style="fill:url(#gradient4)" d="M 14401,8752 L 14541,8834 14541,8681 14401,8599 14401,8752 Z"/>
         </g>
        </g>
       </g>
       <g class="com.sun.star.drawing.PolyPolygonShape">
        <g id="id12">
         <rect class="BoundingBox" stroke="none" fill="none" x="14397" y="8595" width="149" height="244"/>
         <path fill="none" stroke="rgb(0,0,0)" stroke-width="8" stroke-linejoin="round" stroke-linecap="round" d="M 14401,8752 L 14541,8834 14541,8681 14401,8599 14401,8752 Z"/>
        </g>
       </g>
      </g>
      <g class="Group">
       <g class="com.sun.star.drawing.PolyPolygonShape">
        <g id="id13">
         <rect class="BoundingBox" stroke="none" fill="none" x="12250" y="7197" width="309" height="518"/>
         <g>
          <defs>
           <linearGradient id="gradient5" x1="12609" y1="7661" x2="12197" y2="7249" gradientUnits="userSpaceOnUse">
            <stop offset="0" style="stop-color:rgb(0,0,255)"/>
            <stop offset="1" style="stop-color:rgb(192,192,192)"/>
           </linearGradient>
          </defs>
          <path style="fill:url(#gradient5)" d="M 12250,7530 L 12557,7714 12557,7381 12250,7197 12250,7530 Z"/>
         </g>
        </g>
       </g>
       <g class="com.sun.star.drawing.PolyPolygonShape">
        <g id="id14">
         <rect class="BoundingBox" stroke="none" fill="none" x="12246" y="7193" width="317" height="526"/>
         <path fill="none" stroke="rgb(0,0,0)" stroke-width="8" stroke-linejoin="round" stroke-linecap="round" d="M 12250,7530 L 12557,7714 12557,7381 12250,7197 12250,7530 Z"/>
        </g>
       </g>
      </g>
      <g class="Group">
       <g class="com.sun.star.drawing.PolyPolygonShape">
        <g id="id15">
         <rect class="BoundingBox" stroke="none" fill="none" x="14214" y="8476" width="142" height="236"/>
         <g>
          <defs>
           <linearGradient id="gradient6" x1="14378" y1="8686" x2="14191" y2="8499" gradientUnits="userSpaceOnUse">
            <stop offset="0" style="stop-color:rgb(51,102,255)"/>
            <stop offset="1" style="stop-color:rgb(192,192,192)"/>
           </linearGradient>
          </defs>
          <path style="fill:url(#gradient6)" d="M 14215,8629 L 14355,8711 14355,8558 14215,8476 14215,8629 Z"/>
         </g>
        </g>
       </g>
       <g class="com.sun.star.drawing.PolyPolygonShape">
        <g id="id16">
         <rect class="BoundingBox" stroke="none" fill="none" x="14210" y="8472" width="150" height="244"/>
         <path fill="none" stroke="rgb(0,0,0)" stroke-width="8" stroke-linejoin="round" stroke-linecap="round" d="M 14215,8629 L 14355,8711 14355,8558 14215,8476 14215,8629 Z"/>
        </g>
       </g>
      </g>
      <g class="Group">
       <g class="com.sun.star.drawing.PolyPolygonShape">
        <g id="id17">
         <rect class="BoundingBox" stroke="none" fill="none" x="14026" y="8353" width="141" height="236"/>
         <g>
          <defs>
           <linearGradient id="gradient7" x1="14189" y1="8563" x2="14002" y2="8376" gradientUnits="userSpaceOnUse">
            <stop offset="0" style="stop-color:rgb(255,0,0)"/>
            <stop offset="1" style="stop-color:rgb(192,192,192)"/>
           </linearGradient>
          </defs>
          <path style="fill:url(#gradient7)" d="M 14026,8506 L 14166,8588 14166,8435 14026,8353 14026,8506 Z"/>
         </g>
        </g>
       </g>
       <g class="com.sun.star.drawing.PolyPolygonShape">
        <g id="id18">
         <rect class="BoundingBox" stroke="none" fill="none" x="14022" y="8349" width="149" height="244"/>
         <path fill="none" stroke="rgb(0,0,0)" stroke-width="8" stroke-linejoin="round" stroke-linecap="round" d="M 14026,8506 L 14166,8588 14166,8435 14026,8353 14026,8506 Z"/>
        </g>
       </g>
      </g>
      <g class="Group">
       <g class="com.sun.star.drawing.PolyPolygonShape">
        <g id="id19">
         <rect class="BoundingBox" stroke="none" fill="none" x="13831" y="8231" width="141" height="236"/>
         <g>
          <defs>
           <linearGradient id="gradient8" x1="13994" y1="8441" x2="13807" y2="8254" gradientUnits="userSpaceOnUse">
            <stop offset="0" style="stop-color:rgb(255,0,0)"/>
            <stop offset="1" style="stop-color:rgb(192,192,192)"/>
           </linearGradient>
          </defs>
          <path style="fill:url(#gradient8)" d="M 13831,8384 L 13971,8466 13971,8313 13831,8231 13831,8384 Z"/>
         </g>
        </g>
       </g>
       <g class="com.sun.star.drawing.PolyPolygonShape">
        <g id="id20">
         <rect class="BoundingBox" stroke="none" fill="none" x="13827" y="8227" width="149" height="244"/>
         <path fill="none" stroke="rgb(0,0,0)" stroke-width="8" stroke-linejoin="round" stroke-linecap="round" d="M 13831,8384 L 13971,8466 13971,8313 13831,8231 13831,8384 Z"/>
        </g>
       </g>
      </g>
      <g class="Group">
       <g class="com.sun.star.drawing.PolyPolygonShape">
        <g id="id21">
         <rect class="BoundingBox" stroke="none" fill="none" x="13637" y="8103" width="141" height="236"/>
         <g>
          <defs>
           <linearGradient id="gradient9" x1="13800" y1="8313" x2="13613" y2="8126" gradientUnits="userSpaceOnUse">
            <stop offset="0" style="stop-color:rgb(0,255,0)"/>
            <stop offset="1" style="stop-color:rgb(192,192,192)"/>
           </linearGradient>
          </defs>
          <path style="fill:url(#gradient9)" d="M 13637,8256 L 13777,8338 13777,8185 13637,8103 13637,8256 Z"/>
         </g>
        </g>
       </g>
       <g class="com.sun.star.drawing.PolyPolygonShape">
        <g id="id22">
         <rect class="BoundingBox" stroke="none" fill="none" x="13633" y="8099" width="149" height="244"/>
         <path fill="none" stroke="rgb(0,0,0)" stroke-width="8" stroke-linejoin="round" stroke-linecap="round" d="M 13637,8256 L 13777,8338 13777,8185 13637,8103 13637,8256 Z"/>
        </g>
       </g>
      </g>
      <g class="Group">
       <g class="com.sun.star.drawing.PolyPolygonShape">
        <g id="id23">
         <rect class="BoundingBox" stroke="none" fill="none" x="13443" y="7980" width="141" height="236"/>
         <g>
          <defs>
           <linearGradient id="gradient10" x1="13606" y1="8190" x2="13419" y2="8003" gradientUnits="userSpaceOnUse">
            <stop offset="0" style="stop-color:rgb(51,102,255)"/>
            <stop offset="1" style="stop-color:rgb(192,192,192)"/>
           </linearGradient>
          </defs>
          <path style="fill:url(#gradient10)" d="M 13443,8133 L 13583,8215 13583,8062 13443,7980 13443,8133 Z"/>
         </g>
        </g>
       </g>
       <g class="com.sun.star.drawing.PolyPolygonShape">
        <g id="id24">
         <rect class="BoundingBox" stroke="none" fill="none" x="13439" y="7976" width="149" height="244"/>
         <path fill="none" stroke="rgb(0,0,0)" stroke-width="8" stroke-linejoin="round" stroke-linecap="round" d="M 13443,8133 L 13583,8215 13583,8062 13443,7980 13443,8133 Z"/>
        </g>
       </g>
      </g>
      <g class="Group">
       <g class="com.sun.star.drawing.PolyPolygonShape">
        <g id="id25">
         <rect class="BoundingBox" stroke="none" fill="none" x="13247" y="7857" width="142" height="236"/>
         <g>
          <defs>
           <linearGradient id="gradient11" x1="13411" y1="8067" x2="13224" y2="7880" gradientUnits="userSpaceOnUse">
            <stop offset="0" style="stop-color:rgb(255,0,0)"/>
            <stop offset="1" style="stop-color:rgb(192,192,192)"/>
           </linearGradient>
          </defs>
          <path style="fill:url(#gradient11)" d="M 13248,8010 L 13388,8092 13388,7939 13248,7857 13248,8010 Z"/>
         </g>
        </g>
       </g>
       <g class="com.sun.star.drawing.PolyPolygonShape">
        <g id="id26">
         <rect class="BoundingBox" stroke="none" fill="none" x="13243" y="7853" width="150" height="244"/>
         <path fill="none" stroke="rgb(0,0,0)" stroke-width="8" stroke-linejoin="round" stroke-linecap="round" d="M 13248,8010 L 13388,8092 13388,7939 13248,7857 13248,8010 Z"/>
        </g>
       </g>
      </g>
      <g class="Group">
       <g class="com.sun.star.drawing.PolyPolygonShape">
        <g id="id27">
         <rect class="BoundingBox" stroke="none" fill="none" x="13059" y="7729" width="141" height="236"/>
         <g>
          <defs>
           <linearGradient id="gradient12" x1="13222" y1="7939" x2="13035" y2="7752" gradientUnits="userSpaceOnUse">
            <stop offset="0" style="stop-color:rgb(51,102,255)"/>
            <stop offset="1" style="stop-color:rgb(192,192,192)"/>
           </linearGradient>
          </defs>
          <path style="fill:url(#gradient12)" d="M 13059,7882 L 13199,7964 13199,7811 13059,7729 13059,7882 Z"/>
         </g>
        </g>
       </g>
       <g class="com.sun.star.drawing.PolyPolygonShape">
        <g id="id28">
         <rect class="BoundingBox" stroke="none" fill="none" x="13055" y="7725" width="149" height="244"/>
         <path fill="none" stroke="rgb(0,0,0)" stroke-width="8" stroke-linejoin="round" stroke-linecap="round" d="M 13059,7882 L 13199,7964 13199,7811 13059,7729 13059,7882 Z"/>
        </g>
       </g>
      </g>
      <g class="com.sun.star.drawing.PolyPolygonShape">
       <g id="id29">
        <rect class="BoundingBox" stroke="none" fill="none" x="11997" y="5973" width="4031" height="3805"/>
        <path fill="none" stroke="rgb(0,176,240)" stroke-width="53" stroke-linejoin="round" stroke-linecap="round" d="M 12024,6880 L 12024,7852 12087,7913 12087,8062 14672,9750 15937,8926 15937,8773 16000,8737 16000,7760 13348,6000 12024,6880 Z"/>
       </g>
      </g>
     </g>
    </g>
   </g>
  </g>
 </g>
</svg>