<?xml version="1.0" encoding="UTF-8"?>
<!DOCTYPE svg PUBLIC "-//W3C//DTD SVG 1.1//EN" "http://www.w3.org/Graphics/SVG/1.1/DTD/svg11.dtd">
<svg version="1.2" width="230mm" height="190.9mm" viewBox="0 0 23000 19090" preserveAspectRatio="xMidYMid" fill-rule="evenodd" stroke-width="28.222" stroke-linejoin="round" xmlns="http://www.w3.org/2000/svg" xmlns:ooo="http://xml.openoffice.org/svg/export" xmlns:xlink="http://www.w3.org/1999/xlink" xmlns:presentation="http://sun.com/xmlns/staroffice/presentation" xmlns:smil="http://www.w3.org/2001/SMIL20/" xmlns:anim="urn:oasis:names:tc:opendocument:xmlns:animation:1.0" xml:space="preserve">
 <defs class="ClipPathGroup">
  <clipPath id="presentation_clip_path" clipPathUnits="userSpaceOnUse">
   <rect x="0" y="0" width="23000" height="19090"/>
  </clipPath>
  <clipPath id="presentation_clip_path_shrink" clipPathUnits="userSpaceOnUse">
   <rect x="23" y="19" width="22954" height="19052"/>
  </clipPath>
 </defs>
 <defs class="TextShapeIndex">
  <g ooo:slide="id1" ooo:id-list="id3 id4 id5 id6 id7 id8 id9 id10 id11 id12 id13 id14 id15 id16 id17 id18 id19 id20 id21 id22 id23 id24 id25 id26 id27 id28 id29"/>
 </defs>
 <defs class="EmbeddedBulletChars">
  <g id="bullet-char-template-57356" transform="scale(0.00048828125,-0.00048828125)">
   <path d="M 580,1141 L 1163,571 580,0 -4,571 580,1141 Z"/>
  </g>
  <g id="bullet-char-template-57354" transform="scale(0.00048828125,-0.00048828125)">
   <path d="M 8,1128 L 1137,1128 1137,0 8,0 8,1128 Z"/>
  </g>
  <g id="bullet-char-template-10146" transform="scale(0.00048828125,-0.00048828125)">
   <path d="M 174,0 L 602,739 174,1481 1456,739 174,0 Z M 1358,739 L 309,1346 659,739 1358,739 Z"/>
  </g>
  <g id="bullet-char-template-10132" transform="scale(0.00048828125,-0.00048828125)">
   <path d="M 2015,739 L 1276,0 717,0 1260,543 174,543 174,936 1260,936 717,1481 1274,1481 2015,739 Z"/>
  </g>
  <g id="bullet-char-template-10007" transform="scale(0.00048828125,-0.00048828125)">
   <path d="M 0,-2 C -7,14 -16,27 -25,37 L 356,567 C 262,823 215,952 215,954 215,979 228,992 255,992 264,992 276,990 289,987 310,991 331,999 354,1012 L 381,999 492,748 772,1049 836,1024 860,1049 C 881,1039 901,1025 922,1006 886,937 835,863 770,784 769,783 710,716 594,584 L 774,223 C 774,196 753,168 711,139 L 727,119 C 717,90 699,76 672,76 641,76 570,178 457,381 L 164,-76 C 142,-110 111,-127 72,-127 30,-127 9,-110 8,-76 1,-67 -2,-52 -2,-32 -2,-23 -1,-13 0,-2 Z"/>
  </g>
  <g id="bullet-char-template-10004" transform="scale(0.00048828125,-0.00048828125)">
   <path d="M 285,-33 C 182,-33 111,30 74,156 52,228 41,333 41,471 41,549 55,616 82,672 116,743 169,778 240,778 293,778 328,747 346,684 L 369,508 C 377,444 397,411 428,410 L 1163,1116 C 1174,1127 1196,1133 1229,1133 1271,1133 1292,1118 1292,1087 L 1292,965 C 1292,929 1282,901 1262,881 L 442,47 C 390,-6 338,-33 285,-33 Z"/>
  </g>
  <g id="bullet-char-template-9679" transform="scale(0.00048828125,-0.00048828125)">
   <path d="M 813,0 C 632,0 489,54 383,161 276,268 223,411 223,592 223,773 276,916 383,1023 489,1130 632,1184 813,1184 992,1184 1136,1130 1245,1023 1353,916 1407,772 1407,592 1407,412 1353,268 1245,161 1136,54 992,0 813,0 Z"/>
  </g>
  <g id="bullet-char-template-8226" transform="scale(0.00048828125,-0.00048828125)">
   <path d="M 346,457 C 273,457 209,483 155,535 101,586 74,649 74,723 74,796 101,859 155,911 209,963 273,989 346,989 419,989 480,963 531,910 582,859 608,796 608,723 608,648 583,586 532,535 482,483 420,457 346,457 Z"/>
  </g>
  <g id="bullet-char-template-8211" transform="scale(0.00048828125,-0.00048828125)">
   <path d="M -4,459 L 1135,459 1135,606 -4,606 -4,459 Z"/>
  </g>
  <g id="bullet-char-template-61548" transform="scale(0.00048828125,-0.00048828125)">
   <path d="M 173,740 C 173,903 231,1043 346,1159 462,1274 601,1332 765,1332 928,1332 1067,1274 1183,1159 1299,1043 1357,903 1357,740 1357,577 1299,437 1183,322 1067,206 928,148 765,148 601,148 462,206 346,322 231,437 173,577 173,740 Z"/>
  </g>
 </defs>
 <g>
  <g id="id2" class="Master_Slide">
   <g id="bg-id2" class="Background"/>
   <g id="bo-id2" class="BackgroundObjects"/>
  </g>
 </g>
 <g class="SlideGroup">
  <g>
   <g id="container-id1">
    <g id="id1" class="Slide" clip-path="url(#presentation_clip_path)">
     <g class="Page">
      <g class="Group">
       <g class="com.sun.star.drawing.PolyPolygonShape">
        <g id="id3">
         <rect class="BoundingBox" stroke="none" fill="none" x="0" y="0" width="23001" height="19065"/>
        </g>
       </g>
       <g class="com.sun.star.drawing.PolyPolygonShape">
        <g id="id4">
         <rect class="BoundingBox" stroke="none" fill="none" x="0" y="0" width="23001" height="19065"/>
        </g>
       </g>
      </g>
      <g class="Group">
       <g class="com.sun.star.drawing.PolyPolygonShape">
        <g id="id5">
         <rect class="BoundingBox" stroke="none" fill="none" x="0" y="0" width="23001" height="13369"/>
         <g>
          <defs>
           <linearGradient id="gradient1" x1="11500" y1="0" x2="11500" y2="13368" gradientUnits="userSpaceOnUse">
            <stop offset="0" style="stop-color:rgb(141,177,226)"/>
            <stop offset="1" style="stop-color:rgb(172,199,234)"/>
           </linearGradient>
          </defs>
          <path style="fill:url(#gradient1)" d="M 0,4499 L 15316,13368 23000,8973 7658,0 0,4499 Z"/>
         </g>
        </g>
       </g>
       <g class="com.sun.star.drawing.PolyPolygonShape">
        <g id="id6">
         <rect class="BoundingBox" stroke="none" fill="none" x="-13" y="-13" width="23027" height="13395"/>
         <path fill="none" stroke="rgb(255,255,255)" stroke-width="25" stroke-linejoin="round" stroke-linecap="round" d="M 0,4499 L 15316,13368 23000,8973 7658,0 0,4499 Z"/>
        </g>
       </g>
      </g>
      <g class="Group">
       <g class="com.sun.star.drawing.PolyPolygonShape">
        <g id="id7">
         <rect class="BoundingBox" stroke="none" fill="none" x="15316" y="8973" width="7685" height="10118"/>
         <g>
          <defs>
           <linearGradient id="gradient2" x1="23608" y1="18481" x2="14707" y2="9580" gradientUnits="userSpaceOnUse">
            <stop offset="0" style="stop-color:rgb(141,177,226)"/>
            <stop offset="1" style="stop-color:rgb(172,199,234)"/>
           </linearGradient>
          </defs>
          <path style="fill:url(#gradient2)" d="M 15316,19090 L 22634,14903 22634,14123 23000,13915 23000,8973 15316,13342 15316,19090 Z"/>
         </g>
        </g>
       </g>
       <g class="com.sun.star.drawing.PolyPolygonShape">
        <g id="id8">
         <rect class="BoundingBox" stroke="none" fill="none" x="15303" y="8960" width="7711" height="10144"/>
         <path fill="none" stroke="rgb(255,255,255)" stroke-width="25" stroke-linejoin="round" stroke-linecap="round" d="M 15316,19090 L 22634,14903 22634,14123 23000,13915 23000,8973 15316,13342 15316,19090 Z"/>
        </g>
       </g>
      </g>
      <g class="Group">
       <g class="com.sun.star.drawing.PolyPolygonShape">
        <g id="id9">
         <rect class="BoundingBox" stroke="none" fill="none" x="0" y="4473" width="15343" height="14592"/>
         <g>
          <defs>
           <linearGradient id="gradient3" x1="188" y1="19251" x2="15155" y2="4284" gradientUnits="userSpaceOnUse">
            <stop offset="0" style="stop-color:rgb(141,177,226)"/>
            <stop offset="1" style="stop-color:rgb(172,199,234)"/>
           </linearGradient>
          </defs>
          <path style="fill:url(#gradient3)" d="M 0,9415 L 366,9701 366,10455 15342,19064 15342,13342 0,4473 0,9415 Z"/>
         </g>
        </g>
       </g>
       <g class="com.sun.star.drawing.PolyPolygonShape">
        <g id="id10">
         <rect class="BoundingBox" stroke="none" fill="none" x="-13" y="4460" width="15369" height="14618"/>
         <path fill="none" stroke="rgb(0,0,0)" stroke-width="25" stroke-linejoin="round" stroke-linecap="round" d="M 0,9415 L 366,9701 366,10455 15342,19064 15342,13342 0,4473 0,9415 Z"/>
        </g>
       </g>
      </g>
      <g class="Group">
       <g class="com.sun.star.drawing.PolyPolygonShape">
        <g id="id11">
         <rect class="BoundingBox" stroke="none" fill="none" x="13774" y="13212" width="811" height="1197"/>
         <g>
          <defs>
           <linearGradient id="gradient4" x1="14680" y1="14311" x2="13678" y2="13309" gradientUnits="userSpaceOnUse">
            <stop offset="0" style="stop-color:rgb(0,255,0)"/>
            <stop offset="1" style="stop-color:rgb(192,192,192)"/>
           </linearGradient>
          </defs>
          <path style="fill:url(#gradient4)" d="M 13774,13992 L 14584,14408 14584,13628 13774,13212 13774,13992 Z"/>
         </g>
        </g>
       </g>
       <g class="com.sun.star.drawing.PolyPolygonShape">
        <g id="id12">
         <rect class="BoundingBox" stroke="none" fill="none" x="13770" y="13208" width="819" height="1205"/>
         <path fill="none" stroke="rgb(0,0,0)" stroke-width="8" stroke-linejoin="round" stroke-linecap="round" d="M 13774,13992 L 14584,14408 14584,13628 13774,13212 13774,13992 Z"/>
        </g>
       </g>
      </g>
      <g class="Group">
       <g class="com.sun.star.drawing.PolyPolygonShape">
        <g id="id13">
         <rect class="BoundingBox" stroke="none" fill="none" x="1333" y="6112" width="1778" height="2629"/>
         <g>
          <defs>
           <linearGradient id="gradient5" x1="3322" y1="8526" x2="1119" y2="6323" gradientUnits="userSpaceOnUse">
            <stop offset="0" style="stop-color:rgb(0,0,255)"/>
            <stop offset="1" style="stop-color:rgb(192,192,192)"/>
           </linearGradient>
          </defs>
          <path style="fill:url(#gradient5)" d="M 1333,7803 L 3110,8739 3110,7048 1333,6112 1333,7803 Z"/>
         </g>
        </g>
       </g>
       <g class="com.sun.star.drawing.PolyPolygonShape">
        <g id="id14">
         <rect class="BoundingBox" stroke="none" fill="none" x="1329" y="6108" width="1786" height="2637"/>
         <path fill="none" stroke="rgb(0,0,0)" stroke-width="8" stroke-linejoin="round" stroke-linecap="round" d="M 1333,7803 L 3110,8739 3110,7048 1333,6112 1333,7803 Z"/>
        </g>
       </g>
      </g>
      <g class="Group">
       <g class="com.sun.star.drawing.PolyPolygonShape">
        <g id="id15">
         <rect class="BoundingBox" stroke="none" fill="none" x="12676" y="12587" width="811" height="1198"/>
         <g>
          <defs>
           <linearGradient id="gradient6" x1="13582" y1="13687" x2="12580" y2="12685" gradientUnits="userSpaceOnUse">
            <stop offset="0" style="stop-color:rgb(51,102,255)"/>
            <stop offset="1" style="stop-color:rgb(192,192,192)"/>
           </linearGradient>
          </defs>
          <path style="fill:url(#gradient6)" d="M 12676,13368 L 13486,13784 13486,13004 12676,12588 12676,13368 Z"/>
         </g>
        </g>
       </g>
       <g class="com.sun.star.drawing.PolyPolygonShape">
        <g id="id16">
         <rect class="BoundingBox" stroke="none" fill="none" x="12672" y="12583" width="819" height="1206"/>
         <path fill="none" stroke="rgb(0,0,0)" stroke-width="8" stroke-linejoin="round" stroke-linecap="round" d="M 12676,13368 L 13486,13784 13486,13004 12676,12588 12676,13368 Z"/>
        </g>
       </g>
      </g>
      <g class="Group">
       <g class="com.sun.star.drawing.PolyPolygonShape">
        <g id="id17">
         <rect class="BoundingBox" stroke="none" fill="none" x="11578" y="11964" width="811" height="1197"/>
         <g>
          <defs>
           <linearGradient id="gradient7" x1="12484" y1="13063" x2="11482" y2="12061" gradientUnits="userSpaceOnUse">
            <stop offset="0" style="stop-color:rgb(255,0,0)"/>
            <stop offset="1" style="stop-color:rgb(192,192,192)"/>
           </linearGradient>
          </defs>
          <path style="fill:url(#gradient7)" d="M 11578,12744 L 12388,13160 12388,12380 11578,11964 11578,12744 Z"/>
         </g>
        </g>
       </g>
       <g class="com.sun.star.drawing.PolyPolygonShape">
        <g id="id18">
         <rect class="BoundingBox" stroke="none" fill="none" x="11574" y="11960" width="819" height="1205"/>
         <path fill="none" stroke="rgb(0,0,0)" stroke-width="8" stroke-linejoin="round" stroke-linecap="round" d="M 11578,12744 L 12388,13160 12388,12380 11578,11964 11578,12744 Z"/>
        </g>
       </g>
      </g>
      <g class="Group">
       <g class="com.sun.star.drawing.PolyPolygonShape">
        <g id="id19">
         <rect class="BoundingBox" stroke="none" fill="none" x="10455" y="11340" width="811" height="1197"/>
         <g>
          <defs>
           <linearGradient id="gradient8" x1="11361" y1="12439" x2="10359" y2="11437" gradientUnits="userSpaceOnUse">
            <stop offset="0" style="stop-color:rgb(255,0,0)"/>
            <stop offset="1" style="stop-color:rgb(192,192,192)"/>
           </linearGradient>
          </defs>
          <path style="fill:url(#gradient8)" d="M 10455,12120 L 11265,12536 11265,11756 10455,11340 10455,12120 Z"/>
         </g>
        </g>
       </g>
       <g class="com.sun.star.drawing.PolyPolygonShape">
        <g id="id20">
         <rect class="BoundingBox" stroke="none" fill="none" x="10451" y="11336" width="819" height="1205"/>
         <path fill="none" stroke="rgb(0,0,0)" stroke-width="8" stroke-linejoin="round" stroke-linecap="round" d="M 10455,12120 L 11265,12536 11265,11756 10455,11340 10455,12120 Z"/>
        </g>
       </g>
      </g>
      <g class="Group">
       <g class="com.sun.star.drawing.PolyPolygonShape">
        <g id="id21">
         <rect class="BoundingBox" stroke="none" fill="none" x="9357" y="10689" width="811" height="1197"/>
         <g>
          <defs>
           <linearGradient id="gradient9" x1="10263" y1="11788" x2="9261" y2="10786" gradientUnits="userSpaceOnUse">
            <stop offset="0" style="stop-color:rgb(0,255,0)"/>
            <stop offset="1" style="stop-color:rgb(192,192,192)"/>
           </linearGradient>
          </defs>
          <path style="fill:url(#gradient9)" d="M 9357,11469 L 10167,11885 10167,11105 9357,10689 9357,11469 Z"/>
         </g>
        </g>
       </g>
       <g class="com.sun.star.drawing.PolyPolygonShape">
        <g id="id22">
         <rect class="BoundingBox" stroke="none" fill="none" x="9353" y="10685" width="819" height="1205"/>
         <path fill="none" stroke="rgb(0,0,0)" stroke-width="8" stroke-linejoin="round" stroke-linecap="round" d="M 9357,11469 L 10167,11885 10167,11105 9357,10689 9357,11469 Z"/>
        </g>
       </g>
      </g>
      <g class="Group">
       <g class="com.sun.star.drawing.PolyPolygonShape">
        <g id="id23">
         <rect class="BoundingBox" stroke="none" fill="none" x="8207" y="10065" width="811" height="1197"/>
         <g>
          <defs>
           <linearGradient id="gradient10" x1="9113" y1="11164" x2="8111" y2="10162" gradientUnits="userSpaceOnUse">
            <stop offset="0" style="stop-color:rgb(51,102,255)"/>
            <stop offset="1" style="stop-color:rgb(192,192,192)"/>
           </linearGradient>
          </defs>
          <path style="fill:url(#gradient10)" d="M 8207,10845 L 9017,11261 9017,10481 8207,10065 8207,10845 Z"/>
         </g>
        </g>
       </g>
       <g class="com.sun.star.drawing.PolyPolygonShape">
        <g id="id24">
         <rect class="BoundingBox" stroke="none" fill="none" x="8203" y="10061" width="819" height="1205"/>
         <path fill="none" stroke="rgb(0,0,0)" stroke-width="8" stroke-linejoin="round" stroke-linecap="round" d="M 8207,10845 L 9017,11261 9017,10481 8207,10065 8207,10845 Z"/>
        </g>
       </g>
      </g>
      <g class="Group">
       <g class="com.sun.star.drawing.PolyPolygonShape">
        <g id="id25">
         <rect class="BoundingBox" stroke="none" fill="none" x="7109" y="9441" width="811" height="1198"/>
         <g>
          <defs>
           <linearGradient id="gradient11" x1="8015" y1="10540" x2="7013" y2="9538" gradientUnits="userSpaceOnUse">
            <stop offset="0" style="stop-color:rgb(255,0,0)"/>
            <stop offset="1" style="stop-color:rgb(192,192,192)"/>
           </linearGradient>
          </defs>
          <path style="fill:url(#gradient11)" d="M 7109,10221 L 7919,10637 7919,9857 7109,9441 7109,10221 Z"/>
         </g>
        </g>
       </g>
       <g class="com.sun.star.drawing.PolyPolygonShape">
        <g id="id26">
         <rect class="BoundingBox" stroke="none" fill="none" x="7105" y="9437" width="819" height="1206"/>
         <path fill="none" stroke="rgb(0,0,0)" stroke-width="8" stroke-linejoin="round" stroke-linecap="round" d="M 7109,10221 L 7919,10637 7919,9857 7109,9441 7109,10221 Z"/>
        </g>
       </g>
      </g>
      <g class="Group">
       <g class="com.sun.star.drawing.PolyPolygonShape">
        <g id="id27">
         <rect class="BoundingBox" stroke="none" fill="none" x="5984" y="8790" width="812" height="1198"/>
         <g>
          <defs>
           <linearGradient id="gradient12" x1="6891" y1="9890" x2="5889" y2="8888" gradientUnits="userSpaceOnUse">
            <stop offset="0" style="stop-color:rgb(51,102,255)"/>
            <stop offset="1" style="stop-color:rgb(192,192,192)"/>
           </linearGradient>
          </defs>
          <path style="fill:url(#gradient12)" d="M 5985,9571 L 6795,9987 6795,9207 5985,8791 5985,9571 Z"/>
         </g>
        </g>
       </g>
       <g class="com.sun.star.drawing.PolyPolygonShape">
        <g id="id28">
         <rect class="BoundingBox" stroke="none" fill="none" x="5980" y="8786" width="820" height="1206"/>
         <path fill="none" stroke="rgb(0,0,0)" stroke-width="8" stroke-linejoin="round" stroke-linecap="round" d="M 5985,9571 L 6795,9987 6795,9207 5985,8791 5985,9571 Z"/>
        </g>
       </g>
      </g>
      <g class="com.sun.star.drawing.PolyPolygonShape">
       <g id="id29">
        <rect class="BoundingBox" stroke="none" fill="none" x="-27" y="-27" width="23055" height="19119"/>
        <path fill="none" stroke="rgb(0,176,240)" stroke-width="53" stroke-linejoin="round" stroke-linecap="round" d="M 0,4473 L 0,9415 366,9727 366,10481 15316,19064 22634,14877 22634,14096 23000,13914 23000,8947 7658,0 0,4473 Z"/>
       </g>
      </g>
     </g>
    </g>
   </g>
  </g>
 </g>
</svg>