<?xml version="1.0" encoding="UTF-8"?>
<!DOCTYPE svg PUBLIC "-//W3C//DTD SVG 1.1//EN" "http://www.w3.org/Graphics/SVG/1.1/DTD/svg11.dtd">
<svg version="1.2" width="552mm" height="203mm" viewBox="0 0 55200 20300" preserveAspectRatio="xMidYMid" fill-rule="evenodd" stroke-width="28.222" stroke-linejoin="round" xmlns="http://www.w3.org/2000/svg" xmlns:ooo="http://xml.openoffice.org/svg/export" xmlns:xlink="http://www.w3.org/1999/xlink" xmlns:presentation="http://sun.com/xmlns/staroffice/presentation" xmlns:smil="http://www.w3.org/2001/SMIL20/" xmlns:anim="urn:oasis:names:tc:opendocument:xmlns:animation:1.0" xml:space="preserve">
 <defs class="ClipPathGroup">
  <clipPath id="presentation_clip_path" clipPathUnits="userSpaceOnUse">
   <rect x="0" y="0" width="55200" height="20300"/>
  </clipPath>
  <clipPath id="presentation_clip_path_shrink" clipPathUnits="userSpaceOnUse">
   <rect x="55" y="20" width="55090" height="20260"/>
  </clipPath>
 </defs>
 <defs class="TextShapeIndex">
  <g ooo:slide="id1" ooo:id-list="id3 id4 id5 id6 id7 id8 id9 id10 id11 id12 id13 id14 id15 id16 id17 id18 id19 id20 id21 id22 id23 id24 id25 id26 id27 id28 id29"/>
 </defs>
 <defs class="EmbeddedBulletChars">
  <g id="bullet-char-template-57356" transform="scale(0.00048828125,-0.00048828125)">
   <path d="M 580,1141 L 1163,571 580,0 -4,571 580,1141 Z"/>
  </g>
  <g id="bullet-char-template-57354" transform="scale(0.00048828125,-0.00048828125)">
   <path d="M 8,1128 L 1137,1128 1137,0 8,0 8,1128 Z"/>
  </g>
  <g id="bullet-char-template-10146" transform="scale(0.00048828125,-0.00048828125)">
   <path d="M 174,0 L 602,739 174,1481 1456,739 174,0 Z M 1358,739 L 309,1346 659,739 1358,739 Z"/>
  </g>
  <g id="bullet-char-template-10132" transform="scale(0.00048828125,-0.00048828125)">
   <path d="M 2015,739 L 1276,0 717,0 1260,543 174,543 174,936 1260,936 717,1481 1274,1481 2015,739 Z"/>
  </g>
  <g id="bullet-char-template-10007" transform="scale(0.00048828125,-0.00048828125)">
   <path d="M 0,-2 C -7,14 -16,27 -25,37 L 356,567 C 262,823 215,952 215,954 215,979 228,992 255,992 264,992 276,990 289,987 310,991 331,999 354,1012 L 381,999 492,748 772,1049 836,1024 860,1049 C 881,1039 901,1025 922,1006 886,937 835,863 770,784 769,783 710,716 594,584 L 774,223 C 774,196 753,168 711,139 L 727,119 C 717,90 699,76 672,76 641,76 570,178 457,381 L 164,-76 C 142,-110 111,-127 72,-127 30,-127 9,-110 8,-76 1,-67 -2,-52 -2,-32 -2,-23 -1,-13 0,-2 Z"/>
  </g>
  <g id="bullet-char-template-10004" transform="scale(0.00048828125,-0.00048828125)">
   <path d="M 285,-33 C 182,-33 111,30 74,156 52,228 41,333 41,471 41,549 55,616 82,672 116,743 169,778 240,778 293,778 328,747 346,684 L 369,508 C 377,444 397,411 428,410 L 1163,1116 C 1174,1127 1196,1133 1229,1133 1271,1133 1292,1118 1292,1087 L 1292,965 C 1292,929 1282,901 1262,881 L 442,47 C 390,-6 338,-33 285,-33 Z"/>
  </g>
  <g id="bullet-char-template-9679" transform="scale(0.00048828125,-0.00048828125)">
   <path d="M 813,0 C 632,0 489,54 383,161 276,268 223,411 223,592 223,773 276,916 383,1023 489,1130 632,1184 813,1184 992,1184 1136,1130 1245,1023 1353,916 1407,772 1407,592 1407,412 1353,268 1245,161 1136,54 992,0 813,0 Z"/>
  </g>
  <g id="bullet-char-template-8226" transform="scale(0.00048828125,-0.00048828125)">
   <path d="M 346,457 C 273,457 209,483 155,535 101,586 74,649 74,723 74,796 101,859 155,911 209,963 273,989 346,989 419,989 480,963 531,910 582,859 608,796 608,723 608,648 583,586 532,535 482,483 420,457 346,457 Z"/>
  </g>
  <g id="bullet-char-template-8211" transform="scale(0.00048828125,-0.00048828125)">
   <path d="M -4,459 L 1135,459 1135,606 -4,606 -4,459 Z"/>
  </g>
  <g id="bullet-char-template-61548" transform="scale(0.00048828125,-0.00048828125)">
   <path d="M 173,740 C 173,903 231,1043 346,1159 462,1274 601,1332 765,1332 928,1332 1067,1274 1183,1159 1299,1043 1357,903 1357,740 1357,577 1299,437 1183,322 1067,206 928,148 765,148 601,148 462,206 346,322 231,437 173,577 173,740 Z"/>
  </g>
 </defs>
 <g>
  <g id="id2" class="Master_Slide">
   <g id="bg-id2" class="Background"/>
   <g id="bo-id2" class="BackgroundObjects"/>
  </g>
 </g>
 <g class="SlideGroup">
  <g>
   <g id="container-id1">
    <g id="id1" class="Slide" clip-path="url(#presentation_clip_path)">
     <g class="Page">
      <g class="Group">
       <g class="com.sun.star.drawing.PolyPolygonShape">
        <g id="id3">
         <rect class="BoundingBox" stroke="none" fill="none" x="12042" y="6669" width="3959" height="3682"/>
        </g>
       </g>
       <g class="com.sun.star.drawing.PolyPolygonShape">
        <g id="id4">
         <rect class="BoundingBox" stroke="none" fill="none" x="12042" y="6669" width="3959" height="3682"/>
        </g>
       </g>
      </g>
      <g class="Group">
       <g class="com.sun.star.drawing.PolyPolygonShape">
        <g id="id5">
         <rect class="BoundingBox" stroke="none" fill="none" x="12042" y="6669" width="3959" height="2582"/>
         <g>
          <defs>
           <linearGradient id="gradient1" x1="14021" y1="6669" x2="14021" y2="9250" gradientUnits="userSpaceOnUse">
            <stop offset="0" style="stop-color:rgb(255,192,0)"/>
            <stop offset="1" style="stop-color:rgb(255,206,60)"/>
           </linearGradient>
          </defs>
          <path style="fill:url(#gradient1)" d="M 12042,7538 L 14678,9250 16000,8402 13360,6669 12042,7538 Z"/>
         </g>
        </g>
       </g>
       <g class="com.sun.star.drawing.PolyPolygonShape">
        <g id="id6">
         <rect class="BoundingBox" stroke="none" fill="none" x="12029" y="6656" width="3985" height="2608"/>
         <path fill="none" stroke="rgb(255,255,255)" stroke-width="25" stroke-linejoin="round" stroke-linecap="round" d="M 12042,7538 L 14678,9250 16000,8402 13360,6669 12042,7538 Z"/>
        </g>
       </g>
      </g>
      <g class="Group">
       <g class="com.sun.star.drawing.PolyPolygonShape">
        <g id="id7">
         <rect class="BoundingBox" stroke="none" fill="none" x="14678" y="8397" width="1324" height="1954"/>
         <g>
          <defs>
           <linearGradient id="gradient2" x1="16158" y1="10192" x2="14519" y2="8553" gradientUnits="userSpaceOnUse">
            <stop offset="0" style="stop-color:rgb(255,192,0)"/>
            <stop offset="1" style="stop-color:rgb(255,206,60)"/>
           </linearGradient>
          </defs>
          <path style="fill:url(#gradient2)" d="M 14678,10350 L 15937,9542 15937,9391 16000,9351 16000,8397 14678,9241 14678,10350 Z"/>
         </g>
        </g>
       </g>
       <g class="com.sun.star.drawing.PolyPolygonShape">
        <g id="id8">
         <rect class="BoundingBox" stroke="none" fill="none" x="14665" y="8384" width="1349" height="1980"/>
         <path fill="none" stroke="rgb(255,255,255)" stroke-width="25" stroke-linejoin="round" stroke-linecap="round" d="M 14678,10350 L 15937,9542 15937,9391 16000,9351 16000,8397 14678,9241 14678,10350 Z"/>
        </g>
       </g>
      </g>
      <g class="Group">
       <g class="com.sun.star.drawing.PolyPolygonShape">
        <g id="id9">
         <rect class="BoundingBox" stroke="none" fill="none" x="12042" y="7533" width="2641" height="2818"/>
         <g>
          <defs>
           <linearGradient id="gradient3" x1="11998" y1="10305" x2="14727" y2="7576" gradientUnits="userSpaceOnUse">
            <stop offset="0" style="stop-color:rgb(255,192,0)"/>
            <stop offset="1" style="stop-color:rgb(255,206,60)"/>
           </linearGradient>
          </defs>
          <path style="fill:url(#gradient3)" d="M 12042,8487 L 12105,8542 12105,8688 14682,10350 14682,9245 12042,7533 12042,8487 Z"/>
         </g>
        </g>
       </g>
       <g class="com.sun.star.drawing.PolyPolygonShape">
        <g id="id10">
         <rect class="BoundingBox" stroke="none" fill="none" x="12029" y="7520" width="2667" height="2844"/>
         <path fill="none" stroke="rgb(0,0,0)" stroke-width="25" stroke-linejoin="round" stroke-linecap="round" d="M 12042,8487 L 12105,8542 12105,8688 14682,10350 14682,9245 12042,7533 12042,8487 Z"/>
        </g>
       </g>
      </g>
      <g class="Group">
       <g class="com.sun.star.drawing.PolyPolygonShape">
        <g id="id11">
         <rect class="BoundingBox" stroke="none" fill="none" x="14412" y="9220" width="140" height="232"/>
         <g>
          <defs>
           <linearGradient id="gradient4" x1="14574" y1="9428" x2="14388" y2="9242" gradientUnits="userSpaceOnUse">
            <stop offset="0" style="stop-color:rgb(0,255,0)"/>
            <stop offset="1" style="stop-color:rgb(192,192,192)"/>
           </linearGradient>
          </defs>
          <path style="fill:url(#gradient4)" d="M 14412,9371 L 14551,9451 14551,9300 14412,9220 14412,9371 Z"/>
         </g>
        </g>
       </g>
       <g class="com.sun.star.drawing.PolyPolygonShape">
        <g id="id12">
         <rect class="BoundingBox" stroke="none" fill="none" x="14408" y="9216" width="148" height="240"/>
         <path fill="none" stroke="rgb(0,0,0)" stroke-width="8" stroke-linejoin="round" stroke-linecap="round" d="M 14412,9371 L 14551,9451 14551,9300 14412,9220 14412,9371 Z"/>
        </g>
       </g>
      </g>
      <g class="Group">
       <g class="com.sun.star.drawing.PolyPolygonShape">
        <g id="id13">
         <rect class="BoundingBox" stroke="none" fill="none" x="12271" y="7844" width="307" height="508"/>
         <g>
          <defs>
           <linearGradient id="gradient5" x1="12627" y1="8300" x2="12220" y2="7893" gradientUnits="userSpaceOnUse">
            <stop offset="0" style="stop-color:rgb(0,0,255)"/>
            <stop offset="1" style="stop-color:rgb(192,192,192)"/>
           </linearGradient>
          </defs>
          <path style="fill:url(#gradient5)" d="M 12271,8170 L 12577,8351 12577,8025 12271,7844 12271,8170 Z"/>
         </g>
        </g>
       </g>
       <g class="com.sun.star.drawing.PolyPolygonShape">
        <g id="id14">
         <rect class="BoundingBox" stroke="none" fill="none" x="12267" y="7840" width="315" height="516"/>
         <path fill="none" stroke="rgb(0,0,0)" stroke-width="8" stroke-linejoin="round" stroke-linecap="round" d="M 12271,8170 L 12577,8351 12577,8025 12271,7844 12271,8170 Z"/>
        </g>
       </g>
      </g>
      <g class="Group">
       <g class="com.sun.star.drawing.PolyPolygonShape">
        <g id="id15">
         <rect class="BoundingBox" stroke="none" fill="none" x="14223" y="9095" width="140" height="232"/>
         <g>
          <defs>
           <linearGradient id="gradient6" x1="14385" y1="9303" x2="14199" y2="9117" gradientUnits="userSpaceOnUse">
            <stop offset="0" style="stop-color:rgb(51,102,255)"/>
            <stop offset="1" style="stop-color:rgb(192,192,192)"/>
           </linearGradient>
          </defs>
          <path style="fill:url(#gradient6)" d="M 14223,9246 L 14362,9326 14362,9175 14223,9095 14223,9246 Z"/>
         </g>
        </g>
       </g>
       <g class="com.sun.star.drawing.PolyPolygonShape">
        <g id="id16">
         <rect class="BoundingBox" stroke="none" fill="none" x="14219" y="9091" width="148" height="240"/>
         <path fill="none" stroke="rgb(0,0,0)" stroke-width="8" stroke-linejoin="round" stroke-linecap="round" d="M 14223,9246 L 14362,9326 14362,9175 14223,9095 14223,9246 Z"/>
        </g>
       </g>
      </g>
      <g class="Group">
       <g class="com.sun.star.drawing.PolyPolygonShape">
        <g id="id17">
         <rect class="BoundingBox" stroke="none" fill="none" x="14034" y="8979" width="140" height="232"/>
         <g>
          <defs>
           <linearGradient id="gradient7" x1="14196" y1="9187" x2="14010" y2="9001" gradientUnits="userSpaceOnUse">
            <stop offset="0" style="stop-color:rgb(255,0,0)"/>
            <stop offset="1" style="stop-color:rgb(192,192,192)"/>
           </linearGradient>
          </defs>
          <path style="fill:url(#gradient7)" d="M 14034,9130 L 14173,9210 14173,9059 14034,8979 14034,9130 Z"/>
         </g>
        </g>
       </g>
       <g class="com.sun.star.drawing.PolyPolygonShape">
        <g id="id18">
         <rect class="BoundingBox" stroke="none" fill="none" x="14030" y="8975" width="148" height="240"/>
         <path fill="none" stroke="rgb(0,0,0)" stroke-width="8" stroke-linejoin="round" stroke-linecap="round" d="M 14034,9130 L 14173,9210 14173,9059 14034,8979 14034,9130 Z"/>
        </g>
       </g>
      </g>
      <g class="Group">
       <g class="com.sun.star.drawing.PolyPolygonShape">
        <g id="id19">
         <rect class="BoundingBox" stroke="none" fill="none" x="13846" y="8853" width="140" height="232"/>
         <g>
          <defs>
           <linearGradient id="gradient8" x1="14008" y1="9061" x2="13822" y2="8875" gradientUnits="userSpaceOnUse">
            <stop offset="0" style="stop-color:rgb(255,0,0)"/>
            <stop offset="1" style="stop-color:rgb(192,192,192)"/>
           </linearGradient>
          </defs>
          <path style="fill:url(#gradient8)" d="M 13846,9004 L 13985,9084 13985,8933 13846,8853 13846,9004 Z"/>
         </g>
        </g>
       </g>
       <g class="com.sun.star.drawing.PolyPolygonShape">
        <g id="id20">
         <rect class="BoundingBox" stroke="none" fill="none" x="13842" y="8849" width="148" height="240"/>
         <path fill="none" stroke="rgb(0,0,0)" stroke-width="8" stroke-linejoin="round" stroke-linecap="round" d="M 13846,9004 L 13985,9084 13985,8933 13846,8853 13846,9004 Z"/>
        </g>
       </g>
      </g>
      <g class="Group">
       <g class="com.sun.star.drawing.PolyPolygonShape">
        <g id="id21">
         <rect class="BoundingBox" stroke="none" fill="none" x="13652" y="8733" width="140" height="232"/>
         <g>
          <defs>
           <linearGradient id="gradient9" x1="13814" y1="8941" x2="13628" y2="8755" gradientUnits="userSpaceOnUse">
            <stop offset="0" style="stop-color:rgb(0,255,0)"/>
            <stop offset="1" style="stop-color:rgb(192,192,192)"/>
           </linearGradient>
          </defs>
          <path style="fill:url(#gradient9)" d="M 13652,8884 L 13791,8964 13791,8813 13652,8733 13652,8884 Z"/>
         </g>
        </g>
       </g>
       <g class="com.sun.star.drawing.PolyPolygonShape">
        <g id="id22">
         <rect class="BoundingBox" stroke="none" fill="none" x="13648" y="8729" width="148" height="240"/>
         <path fill="none" stroke="rgb(0,0,0)" stroke-width="8" stroke-linejoin="round" stroke-linecap="round" d="M 13652,8884 L 13791,8964 13791,8813 13652,8733 13652,8884 Z"/>
        </g>
       </g>
      </g>
      <g class="Group">
       <g class="com.sun.star.drawing.PolyPolygonShape">
        <g id="id23">
         <rect class="BoundingBox" stroke="none" fill="none" x="13454" y="8612" width="140" height="232"/>
         <g>
          <defs>
           <linearGradient id="gradient10" x1="13616" y1="8820" x2="13430" y2="8634" gradientUnits="userSpaceOnUse">
            <stop offset="0" style="stop-color:rgb(51,102,255)"/>
            <stop offset="1" style="stop-color:rgb(192,192,192)"/>
           </linearGradient>
          </defs>
          <path style="fill:url(#gradient10)" d="M 13454,8763 L 13593,8843 13593,8692 13454,8612 13454,8763 Z"/>
         </g>
        </g>
       </g>
       <g class="com.sun.star.drawing.PolyPolygonShape">
        <g id="id24">
         <rect class="BoundingBox" stroke="none" fill="none" x="13450" y="8608" width="148" height="240"/>
         <path fill="none" stroke="rgb(0,0,0)" stroke-width="8" stroke-linejoin="round" stroke-linecap="round" d="M 13454,8763 L 13593,8843 13593,8692 13454,8612 13454,8763 Z"/>
        </g>
       </g>
      </g>
      <g class="Group">
       <g class="com.sun.star.drawing.PolyPolygonShape">
        <g id="id25">
         <rect class="BoundingBox" stroke="none" fill="none" x="13265" y="8487" width="141" height="232"/>
         <g>
          <defs>
           <linearGradient id="gradient11" x1="13427" y1="8695" x2="13241" y2="8509" gradientUnits="userSpaceOnUse">
            <stop offset="0" style="stop-color:rgb(255,0,0)"/>
            <stop offset="1" style="stop-color:rgb(192,192,192)"/>
           </linearGradient>
          </defs>
          <path style="fill:url(#gradient11)" d="M 13265,8638 L 13404,8718 13404,8567 13265,8487 13265,8638 Z"/>
         </g>
        </g>
       </g>
       <g class="com.sun.star.drawing.PolyPolygonShape">
        <g id="id26">
         <rect class="BoundingBox" stroke="none" fill="none" x="13261" y="8483" width="149" height="240"/>
         <path fill="none" stroke="rgb(0,0,0)" stroke-width="8" stroke-linejoin="round" stroke-linecap="round" d="M 13265,8638 L 13404,8718 13404,8567 13265,8487 13265,8638 Z"/>
        </g>
       </g>
      </g>
      <g class="Group">
       <g class="com.sun.star.drawing.PolyPolygonShape">
        <g id="id27">
         <rect class="BoundingBox" stroke="none" fill="none" x="13072" y="8361" width="140" height="232"/>
         <g>
          <defs>
           <linearGradient id="gradient12" x1="13234" y1="8569" x2="13048" y2="8383" gradientUnits="userSpaceOnUse">
            <stop offset="0" style="stop-color:rgb(51,102,255)"/>
            <stop offset="1" style="stop-color:rgb(192,192,192)"/>
           </linearGradient>
          </defs>
          <path style="fill:url(#gradient12)" d="M 13072,8512 L 13211,8592 13211,8441 13072,8361 13072,8512 Z"/>
         </g>
        </g>
       </g>
       <g class="com.sun.star.drawing.PolyPolygonShape">
        <g id="id28">
         <rect class="BoundingBox" stroke="none" fill="none" x="13068" y="8357" width="148" height="240"/>
         <path fill="none" stroke="rgb(0,0,0)" stroke-width="8" stroke-linejoin="round" stroke-linecap="round" d="M 13072,8512 L 13211,8592 13211,8441 13072,8361 13072,8512 Z"/>
        </g>
       </g>
      </g>
      <g class="com.sun.star.drawing.PolyPolygonShape">
       <g id="id29">
        <rect class="BoundingBox" stroke="none" fill="none" x="12015" y="6642" width="4013" height="3736"/>
        <path fill="none" stroke="rgb(255,192,0)" stroke-width="53" stroke-linejoin="round" stroke-linecap="round" d="M 12042,7533 L 12042,8487 12105,8547 12105,8693 14678,10350 15937,9541 15937,9391 16000,9356 16000,8397 13360,6669 12042,7533 Z"/>
       </g>
      </g>
     </g>
    </g>
   </g>
  </g>
 </g>
</svg>