<?xml version="1.0" encoding="UTF-8"?>
<!DOCTYPE svg PUBLIC "-//W3C//DTD SVG 1.1//EN" "http://www.w3.org/Graphics/SVG/1.1/DTD/svg11.dtd">
<svg version="1.2" width="210mm" height="297mm" viewBox="0 0 21000 29700" preserveAspectRatio="xMidYMid" fill-rule="evenodd" stroke-width="28.222" stroke-linejoin="round" xmlns="http://www.w3.org/2000/svg" xmlns:ooo="http://xml.openoffice.org/svg/export" xmlns:xlink="http://www.w3.org/1999/xlink" xmlns:presentation="http://sun.com/xmlns/staroffice/presentation" xmlns:smil="http://www.w3.org/2001/SMIL20/" xmlns:anim="urn:oasis:names:tc:opendocument:xmlns:animation:1.0" xml:space="preserve">
 <defs class="ClipPathGroup">
  <clipPath id="presentation_clip_path" clipPathUnits="userSpaceOnUse">
   <rect x="0" y="0" width="21000" height="29700"/>
  </clipPath>
  <clipPath id="presentation_clip_path_shrink" clipPathUnits="userSpaceOnUse">
   <rect x="21" y="29" width="20958" height="29641"/>
  </clipPath>
 </defs>
 <defs class="TextShapeIndex">
  <g ooo:slide="id1" ooo:id-list="id3 id4 id5 id6 id7 id8 id9 id10 id11 id12 id13 id14 id15 id16 id17 id18 id19 id20 id21 id22 id23 id24 id25 id26 id27 id28 id29"/>
 </defs>
 <defs class="EmbeddedBulletChars">
  <g id="bullet-char-template-57356" transform="scale(0.00048828125,-0.00048828125)">
   <path d="M 580,1141 L 1163,571 580,0 -4,571 580,1141 Z"/>
  </g>
  <g id="bullet-char-template-57354" transform="scale(0.00048828125,-0.00048828125)">
   <path d="M 8,1128 L 1137,1128 1137,0 8,0 8,1128 Z"/>
  </g>
  <g id="bullet-char-template-10146" transform="scale(0.00048828125,-0.00048828125)">
   <path d="M 174,0 L 602,739 174,1481 1456,739 174,0 Z M 1358,739 L 309,1346 659,739 1358,739 Z"/>
  </g>
  <g id="bullet-char-template-10132" transform="scale(0.00048828125,-0.00048828125)">
   <path d="M 2015,739 L 1276,0 717,0 1260,543 174,543 174,936 1260,936 717,1481 1274,1481 2015,739 Z"/>
  </g>
  <g id="bullet-char-template-10007" transform="scale(0.00048828125,-0.00048828125)">
   <path d="M 0,-2 C -7,14 -16,27 -25,37 L 356,567 C 262,823 215,952 215,954 215,979 228,992 255,992 264,992 276,990 289,987 310,991 331,999 354,1012 L 381,999 492,748 772,1049 836,1024 860,1049 C 881,1039 901,1025 922,1006 886,937 835,863 770,784 769,783 710,716 594,584 L 774,223 C 774,196 753,168 711,139 L 727,119 C 717,90 699,76 672,76 641,76 570,178 457,381 L 164,-76 C 142,-110 111,-127 72,-127 30,-127 9,-110 8,-76 1,-67 -2,-52 -2,-32 -2,-23 -1,-13 0,-2 Z"/>
  </g>
  <g id="bullet-char-template-10004" transform="scale(0.00048828125,-0.00048828125)">
   <path d="M 285,-33 C 182,-33 111,30 74,156 52,228 41,333 41,471 41,549 55,616 82,672 116,743 169,778 240,778 293,778 328,747 346,684 L 369,508 C 377,444 397,411 428,410 L 1163,1116 C 1174,1127 1196,1133 1229,1133 1271,1133 1292,1118 1292,1087 L 1292,965 C 1292,929 1282,901 1262,881 L 442,47 C 390,-6 338,-33 285,-33 Z"/>
  </g>
  <g id="bullet-char-template-9679" transform="scale(0.00048828125,-0.00048828125)">
   <path d="M 813,0 C 632,0 489,54 383,161 276,268 223,411 223,592 223,773 276,916 383,1023 489,1130 632,1184 813,1184 992,1184 1136,1130 1245,1023 1353,916 1407,772 1407,592 1407,412 1353,268 1245,161 1136,54 992,0 813,0 Z"/>
  </g>
  <g id="bullet-char-template-8226" transform="scale(0.00048828125,-0.00048828125)">
   <path d="M 346,457 C 273,457 209,483 155,535 101,586 74,649 74,723 74,796 101,859 155,911 209,963 273,989 346,989 419,989 480,963 531,910 582,859 608,796 608,723 608,648 583,586 532,535 482,483 420,457 346,457 Z"/>
  </g>
  <g id="bullet-char-template-8211" transform="scale(0.00048828125,-0.00048828125)">
   <path d="M -4,459 L 1135,459 1135,606 -4,606 -4,459 Z"/>
  </g>
  <g id="bullet-char-template-61548" transform="scale(0.00048828125,-0.00048828125)">
   <path d="M 173,740 C 173,903 231,1043 346,1159 462,1274 601,1332 765,1332 928,1332 1067,1274 1183,1159 1299,1043 1357,903 1357,740 1357,577 1299,437 1183,322 1067,206 928,148 765,148 601,148 462,206 346,322 231,437 173,577 173,740 Z"/>
  </g>
 </defs>
 <g>
  <g id="id2" class="Master_Slide">
   <g id="bg-id2" class="Background"/>
   <g id="bo-id2" class="BackgroundObjects"/>
  </g>
 </g>
 <g class="SlideGroup">
  <g>
   <g id="container-id1">
    <g id="id1" class="Slide" clip-path="url(#presentation_clip_path)">
     <g class="Page">
      <g class="Group">
       <g class="com.sun.star.drawing.PolyPolygonShape">
        <g id="id3">
         <rect class="BoundingBox" stroke="none" fill="none" x="3299" y="3581" width="14503" height="12085"/>
        </g>
       </g>
       <g class="com.sun.star.drawing.PolyPolygonShape">
        <g id="id4">
         <rect class="BoundingBox" stroke="none" fill="none" x="3299" y="3581" width="14503" height="12085"/>
        </g>
       </g>
      </g>
      <g class="Group">
       <g class="com.sun.star.drawing.PolyPolygonShape">
        <g id="id5">
         <rect class="BoundingBox" stroke="none" fill="none" x="3299" y="3581" width="14503" height="8460"/>
         <g>
          <defs>
           <linearGradient id="gradient1" x1="10550" y1="3581" x2="10550" y2="12040" gradientUnits="userSpaceOnUse">
            <stop offset="0" style="stop-color:rgb(255,192,0)"/>
            <stop offset="1" style="stop-color:rgb(255,206,60)"/>
           </linearGradient>
          </defs>
          <path style="fill:url(#gradient1)" d="M 3300,6420 L 12967,12040 17801,9261 8133,3581 3300,6420 Z"/>
         </g>
        </g>
       </g>
       <g class="com.sun.star.drawing.PolyPolygonShape">
        <g id="id6">
         <rect class="BoundingBox" stroke="none" fill="none" x="3287" y="3568" width="14528" height="8486"/>
         <path fill="none" stroke="rgb(255,255,255)" stroke-width="25" stroke-linejoin="round" stroke-linecap="round" d="M 3300,6420 L 12967,12040 17801,9261 8133,3581 3300,6420 Z"/>
        </g>
       </g>
      </g>
      <g class="Group">
       <g class="com.sun.star.drawing.PolyPolygonShape">
        <g id="id7">
         <rect class="BoundingBox" stroke="none" fill="none" x="12967" y="9260" width="4835" height="6406"/>
         <g>
          <defs>
           <linearGradient id="gradient2" x1="18193" y1="15271" x2="12574" y2="9652" gradientUnits="userSpaceOnUse">
            <stop offset="0" style="stop-color:rgb(255,192,0)"/>
            <stop offset="1" style="stop-color:rgb(255,206,60)"/>
           </linearGradient>
          </defs>
          <path style="fill:url(#gradient2)" d="M 12967,15665 L 17559,13006 17559,12523 17801,12401 17801,9260 12967,12039 12967,15665 Z"/>
         </g>
        </g>
       </g>
       <g class="com.sun.star.drawing.PolyPolygonShape">
        <g id="id8">
         <rect class="BoundingBox" stroke="none" fill="none" x="12954" y="9247" width="4861" height="6432"/>
         <path fill="none" stroke="rgb(255,255,255)" stroke-width="25" stroke-linejoin="round" stroke-linecap="round" d="M 12967,15665 L 17559,13006 17559,12523 17801,12401 17801,9260 12967,12039 12967,15665 Z"/>
        </g>
       </g>
      </g>
      <g class="Group">
       <g class="com.sun.star.drawing.PolyPolygonShape">
        <g id="id9">
         <rect class="BoundingBox" stroke="none" fill="none" x="3300" y="6420" width="9669" height="9247"/>
         <g>
          <defs>
           <linearGradient id="gradient3" x1="3406" y1="15771" x2="12862" y2="6315" gradientUnits="userSpaceOnUse">
            <stop offset="0" style="stop-color:rgb(255,192,0)"/>
            <stop offset="1" style="stop-color:rgb(255,206,60)"/>
           </linearGradient>
          </defs>
          <path style="fill:url(#gradient3)" d="M 3300,9563 L 3541,9744 3541,10228 12968,15666 12968,12040 3300,6421 3300,9563 Z"/>
         </g>
        </g>
       </g>
       <g class="com.sun.star.drawing.PolyPolygonShape">
        <g id="id10">
         <rect class="BoundingBox" stroke="none" fill="none" x="3287" y="6408" width="9695" height="9272"/>
         <path fill="none" stroke="rgb(0,0,0)" stroke-width="25" stroke-linejoin="round" stroke-linecap="round" d="M 3300,9563 L 3541,9744 3541,10228 12968,15666 12968,12040 3300,6421 3300,9563 Z"/>
        </g>
       </g>
      </g>
      <g class="Group">
       <g class="com.sun.star.drawing.PolyPolygonShape">
        <g id="id11">
         <rect class="BoundingBox" stroke="none" fill="none" x="11992" y="11962" width="494" height="744"/>
         <g>
          <defs>
           <linearGradient id="gradient4" x1="12547" y1="12642" x2="11928" y2="12023" gradientUnits="userSpaceOnUse">
            <stop offset="0" style="stop-color:rgb(0,255,0)"/>
            <stop offset="1" style="stop-color:rgb(192,192,192)"/>
           </linearGradient>
          </defs>
          <path style="fill:url(#gradient4)" d="M 11992,12442 L 12485,12705 12485,12234 11992,11962 11992,12442 Z"/>
         </g>
        </g>
       </g>
       <g class="com.sun.star.drawing.PolyPolygonShape">
        <g id="id12">
         <rect class="BoundingBox" stroke="none" fill="none" x="11988" y="11958" width="502" height="752"/>
         <path fill="none" stroke="rgb(0,0,0)" stroke-width="8" stroke-linejoin="round" stroke-linecap="round" d="M 11992,12442 L 12485,12705 12485,12234 11992,11962 11992,12442 Z"/>
        </g>
       </g>
      </g>
      <g class="Group">
       <g class="com.sun.star.drawing.PolyPolygonShape">
        <g id="id13">
         <rect class="BoundingBox" stroke="none" fill="none" x="4136" y="7448" width="1099" height="1658"/>
         <g>
          <defs>
           <linearGradient id="gradient5" x1="5374" y1="8965" x2="3996" y2="7587" gradientUnits="userSpaceOnUse">
            <stop offset="0" style="stop-color:rgb(0,0,255)"/>
            <stop offset="1" style="stop-color:rgb(192,192,192)"/>
           </linearGradient>
          </defs>
          <path style="fill:url(#gradient5)" d="M 4136,8519 L 5234,9105 5234,8056 4136,7448 4136,8519 Z"/>
         </g>
        </g>
       </g>
       <g class="com.sun.star.drawing.PolyPolygonShape">
        <g id="id14">
         <rect class="BoundingBox" stroke="none" fill="none" x="4132" y="7444" width="1107" height="1666"/>
         <path fill="none" stroke="rgb(0,0,0)" stroke-width="8" stroke-linejoin="round" stroke-linecap="round" d="M 4136,8519 L 5234,9105 5234,8056 4136,7448 4136,8519 Z"/>
        </g>
       </g>
      </g>
      <g class="Group">
       <g class="com.sun.star.drawing.PolyPolygonShape">
        <g id="id15">
         <rect class="BoundingBox" stroke="none" fill="none" x="11303" y="11564" width="494" height="744"/>
         <g>
          <defs>
           <linearGradient id="gradient6" x1="11858" y1="12244" x2="11239" y2="11625" gradientUnits="userSpaceOnUse">
            <stop offset="0" style="stop-color:rgb(51,102,255)"/>
            <stop offset="1" style="stop-color:rgb(192,192,192)"/>
           </linearGradient>
          </defs>
          <path style="fill:url(#gradient6)" d="M 11303,12044 L 11796,12307 11796,11836 11303,11564 11303,12044 Z"/>
         </g>
        </g>
       </g>
       <g class="com.sun.star.drawing.PolyPolygonShape">
        <g id="id16">
         <rect class="BoundingBox" stroke="none" fill="none" x="11299" y="11560" width="502" height="752"/>
         <path fill="none" stroke="rgb(0,0,0)" stroke-width="8" stroke-linejoin="round" stroke-linecap="round" d="M 11303,12044 L 11796,12307 11796,11836 11303,11564 11303,12044 Z"/>
        </g>
       </g>
      </g>
      <g class="Group">
       <g class="com.sun.star.drawing.PolyPolygonShape">
        <g id="id17">
         <rect class="BoundingBox" stroke="none" fill="none" x="10606" y="11174" width="494" height="744"/>
         <g>
          <defs>
           <linearGradient id="gradient7" x1="11161" y1="11854" x2="10542" y2="11235" gradientUnits="userSpaceOnUse">
            <stop offset="0" style="stop-color:rgb(255,0,0)"/>
            <stop offset="1" style="stop-color:rgb(192,192,192)"/>
           </linearGradient>
          </defs>
          <path style="fill:url(#gradient7)" d="M 10606,11654 L 11099,11917 11099,11446 10606,11174 10606,11654 Z"/>
         </g>
        </g>
       </g>
       <g class="com.sun.star.drawing.PolyPolygonShape">
        <g id="id18">
         <rect class="BoundingBox" stroke="none" fill="none" x="10602" y="11170" width="502" height="752"/>
         <path fill="none" stroke="rgb(0,0,0)" stroke-width="8" stroke-linejoin="round" stroke-linecap="round" d="M 10606,11654 L 11099,11917 11099,11446 10606,11174 10606,11654 Z"/>
        </g>
       </g>
      </g>
      <g class="Group">
       <g class="com.sun.star.drawing.PolyPolygonShape">
        <g id="id19">
         <rect class="BoundingBox" stroke="none" fill="none" x="9909" y="10772" width="494" height="745"/>
         <g>
          <defs>
           <linearGradient id="gradient8" x1="10464" y1="11452" x2="9845" y2="10833" gradientUnits="userSpaceOnUse">
            <stop offset="0" style="stop-color:rgb(255,0,0)"/>
            <stop offset="1" style="stop-color:rgb(192,192,192)"/>
           </linearGradient>
          </defs>
          <path style="fill:url(#gradient8)" d="M 9909,11252 L 10402,11515 10402,11044 9909,10772 9909,11252 Z"/>
         </g>
        </g>
       </g>
       <g class="com.sun.star.drawing.PolyPolygonShape">
        <g id="id20">
         <rect class="BoundingBox" stroke="none" fill="none" x="9905" y="10768" width="502" height="753"/>
         <path fill="none" stroke="rgb(0,0,0)" stroke-width="8" stroke-linejoin="round" stroke-linecap="round" d="M 9909,11252 L 10402,11515 10402,11044 9909,10772 9909,11252 Z"/>
        </g>
       </g>
      </g>
      <g class="Group">
       <g class="com.sun.star.drawing.PolyPolygonShape">
        <g id="id21">
         <rect class="BoundingBox" stroke="none" fill="none" x="9204" y="10360" width="494" height="744"/>
         <g>
          <defs>
           <linearGradient id="gradient9" x1="9759" y1="11040" x2="9140" y2="10421" gradientUnits="userSpaceOnUse">
            <stop offset="0" style="stop-color:rgb(0,255,0)"/>
            <stop offset="1" style="stop-color:rgb(192,192,192)"/>
           </linearGradient>
          </defs>
          <path style="fill:url(#gradient9)" d="M 9204,10840 L 9697,11103 9697,10632 9204,10360 9204,10840 Z"/>
         </g>
        </g>
       </g>
       <g class="com.sun.star.drawing.PolyPolygonShape">
        <g id="id22">
         <rect class="BoundingBox" stroke="none" fill="none" x="9200" y="10356" width="502" height="752"/>
         <path fill="none" stroke="rgb(0,0,0)" stroke-width="8" stroke-linejoin="round" stroke-linecap="round" d="M 9204,10840 L 9697,11103 9697,10632 9204,10360 9204,10840 Z"/>
        </g>
       </g>
      </g>
      <g class="Group">
       <g class="com.sun.star.drawing.PolyPolygonShape">
        <g id="id23">
         <rect class="BoundingBox" stroke="none" fill="none" x="8480" y="9966" width="495" height="744"/>
         <g>
          <defs>
           <linearGradient id="gradient10" x1="9036" y1="10646" x2="8417" y2="10027" gradientUnits="userSpaceOnUse">
            <stop offset="0" style="stop-color:rgb(51,102,255)"/>
            <stop offset="1" style="stop-color:rgb(192,192,192)"/>
           </linearGradient>
          </defs>
          <path style="fill:url(#gradient10)" d="M 8481,10446 L 8974,10709 8974,10238 8481,9966 8481,10446 Z"/>
         </g>
        </g>
       </g>
       <g class="com.sun.star.drawing.PolyPolygonShape">
        <g id="id24">
         <rect class="BoundingBox" stroke="none" fill="none" x="8476" y="9962" width="503" height="752"/>
         <path fill="none" stroke="rgb(0,0,0)" stroke-width="8" stroke-linejoin="round" stroke-linecap="round" d="M 8481,10446 L 8974,10709 8974,10238 8481,9966 8481,10446 Z"/>
        </g>
       </g>
      </g>
      <g class="Group">
       <g class="com.sun.star.drawing.PolyPolygonShape">
        <g id="id25">
         <rect class="BoundingBox" stroke="none" fill="none" x="7784" y="9564" width="494" height="744"/>
         <g>
          <defs>
           <linearGradient id="gradient11" x1="8339" y1="10244" x2="7720" y2="9625" gradientUnits="userSpaceOnUse">
            <stop offset="0" style="stop-color:rgb(255,0,0)"/>
            <stop offset="1" style="stop-color:rgb(192,192,192)"/>
           </linearGradient>
          </defs>
          <path style="fill:url(#gradient11)" d="M 7784,10044 L 8277,10307 8277,9836 7784,9564 7784,10044 Z"/>
         </g>
        </g>
       </g>
       <g class="com.sun.star.drawing.PolyPolygonShape">
        <g id="id26">
         <rect class="BoundingBox" stroke="none" fill="none" x="7780" y="9560" width="502" height="752"/>
         <path fill="none" stroke="rgb(0,0,0)" stroke-width="8" stroke-linejoin="round" stroke-linecap="round" d="M 7784,10044 L 8277,10307 8277,9836 7784,9564 7784,10044 Z"/>
        </g>
       </g>
      </g>
      <g class="Group">
       <g class="com.sun.star.drawing.PolyPolygonShape">
        <g id="id27">
         <rect class="BoundingBox" stroke="none" fill="none" x="7079" y="9153" width="494" height="744"/>
         <g>
          <defs>
           <linearGradient id="gradient12" x1="7634" y1="9833" x2="7015" y2="9214" gradientUnits="userSpaceOnUse">
            <stop offset="0" style="stop-color:rgb(51,102,255)"/>
            <stop offset="1" style="stop-color:rgb(192,192,192)"/>
           </linearGradient>
          </defs>
          <path style="fill:url(#gradient12)" d="M 7079,9633 L 7572,9896 7572,9425 7079,9153 7079,9633 Z"/>
         </g>
        </g>
       </g>
       <g class="com.sun.star.drawing.PolyPolygonShape">
        <g id="id28">
         <rect class="BoundingBox" stroke="none" fill="none" x="7075" y="9149" width="502" height="752"/>
         <path fill="none" stroke="rgb(0,0,0)" stroke-width="8" stroke-linejoin="round" stroke-linecap="round" d="M 7079,9633 L 7572,9896 7572,9425 7079,9153 7079,9633 Z"/>
        </g>
       </g>
      </g>
      <g class="com.sun.star.drawing.PolyPolygonShape">
       <g id="id29">
        <rect class="BoundingBox" stroke="none" fill="none" x="3273" y="3554" width="14556" height="12139"/>
        <path fill="none" stroke="rgb(255,192,0)" stroke-width="53" stroke-linejoin="round" stroke-linecap="round" d="M 3300,6420 L 3300,9562 3541,9744 3541,10227 12967,15665 17559,13007 17559,12523 17801,12402 17801,9260 8133,3581 3300,6420 Z"/>
       </g>
      </g>
     </g>
    </g>
   </g>
  </g>
 </g>
</svg>